<!DOCTYPE svg PUBLIC "-//W3C//DTD SVG 1.1//EN" "http://www.w3.org/Graphics/SVG/1.1/DTD/svg11.dtd">
<!-- Uploaded to: SVG Repo, www.svgrepo.com, Transformed by: SVG Repo Mixer Tools -->
<svg fill="#ffffff" height="800px" width="800px" version="1.1" id="Layer_1" xmlns="http://www.w3.org/2000/svg" xmlns:xlink="http://www.w3.org/1999/xlink" viewBox="0 0 511.9 511.9" xml:space="preserve">
<g id="SVGRepo_bgCarrier" stroke-width="0"/>
<g id="SVGRepo_tracerCarrier" stroke-linecap="round" stroke-linejoin="round"/>
<g id="SVGRepo_iconCarrier"> <g> <g> <path d="M472.6,181.25h-3.3V46.45c0-19.8-15.8-35.8-35.2-35.8H77.8c-19.4,0-35.2,16.1-35.2,35.8v134.8h-3.3 c-21.6,0-39.3,17.7-39.3,39.4v216.6h64v42.7c0,11.8,9.5,21.3,21.3,21.3c11.8,0,21.3-9.6,21.3-21.3v-42.7h298.7v42.7 c0,11.8,9.5,21.3,21.3,21.3s21.3-9.6,21.3-21.3v-42.7h64v-216.6C512,198.95,494.3,181.25,472.6,181.25z M128,266.55h256v42.7H128 V266.55z M469.4,394.55h-0.1H42.7v-170.6h42.7v128h341.3v-128h42.7V394.55z"/> </g> </g> </g>
</svg>